# xmcd
#
# Track frame offsets:
#	150
#	10660
#	27353
#	36062
#	44804
#	55155
#	67965
#	79104
#	91530
#	100725
#	111289
#	121060
#
# Disc length: 1757 seconds
#
# Revision: 0
# Processed by: cddbd v1.5.2PL0 Copyright (c) Steve Scherf et al.
# Submitted via: audiograbber 1.83.01
#
DISCID=8b06db0c
DTITLE=Charley Pride - Make Mine Country
DYEAR=1968
DGENRE=Country
TTITLE0=Now I Can Live Again
TTITLE1=A Word Or Two To Mary
TTITLE2=If You Should Come Back Today
TTITLE3=Guess Things Happen That Way
TTITLE4=Before The Next Teardrop Falls
TTITLE5=Banks Of The Ohio
TTITLE6=Wings Of A Dove
TTITLE7=A Girl I Used To Know
TTITLE8=Lie To Me
TTITLE9=Why Didn't I Think Of That?
TTITLE10=Above And Beyond
TTITLE11=Baby Is Gone
EXTD=
EXTT0=
EXTT1=
EXTT2=
EXTT3=
EXTT4=
EXTT5=
EXTT6=
EXTT7=
EXTT8=
EXTT9=
EXTT10=
EXTT11=
PLAYORDER=
